<?xml version="1.0" encoding="utf-8"?>
<!-- Generator: Adobe Illustrator 17.1.0, SVG Export Plug-In . SVG Version: 6.00 Build 0)  -->
<!DOCTYPE svg PUBLIC "-//W3C//DTD SVG 1.1//EN" "http://www.w3.org/Graphics/SVG/1.1/DTD/svg11.dtd">
<svg version="1.1" id="Layer_1" xmlns="http://www.w3.org/2000/svg" xmlns:xlink="http://www.w3.org/1999/xlink" x="0px" y="0px"
	 viewBox="0 0 200 200" enable-background="new 0 0 200 200" xml:space="preserve">
<g>
	<path fill="#1B75BB" d="M98.7,26.4c27.7,0,50.2,22.5,50.2,50.2c0,3.2-1.1,10.7-8.6,25.3c-5.3,10.3-12.7,22.1-22.1,35.3
		c-6.8,9.5-13.7,18.3-19.4,25.4c-5.7-7-12.5-15.7-19.2-25.1c-28.7-40-30.9-56.7-30.9-60.8C48.6,48.9,71.1,26.4,98.7,26.4 M98.7,7.7
		c-38,0-68.9,30.8-68.9,68.9s68.9,115,68.9,115s68.9-77,68.9-115S136.8,7.7,98.7,7.7L98.7,7.7z"/>
	<circle fill="#1B75BB" cx="98.7" cy="72.8" r="22.6"/>
</g>
</svg>
