<?xml version="1.0" encoding="utf-8"?>
<!-- Generator: Adobe Illustrator 18.0.0, SVG Export Plug-In . SVG Version: 6.00 Build 0)  -->
<!DOCTYPE svg PUBLIC "-//W3C//DTD SVG 1.1//EN" "http://www.w3.org/Graphics/SVG/1.1/DTD/svg11.dtd">
<svg version="1.1" id="Layer_1" xmlns="http://www.w3.org/2000/svg" xmlns:xlink="http://www.w3.org/1999/xlink" x="0px" y="0px"
	 viewBox="0 0 792 612" enable-background="new 0 0 792 612" xml:space="preserve">
<g>
	<path fill="#F89A43" d="M388.5,582.5c-14.9-54.9-55.4-116.6-94.9-176.5c-49.4-75-96.2-145.9-96.2-205.7
		c0-109.5,89.1-198.7,198.4-198.7S594.3,90.7,594.3,200c0,59.3-46.3,129.1-95.2,203.4c-40,60.4-81,122.6-95.9,179.1l-7.1,28
		L388.5,582.5z"/>
	
		<linearGradient id="SVGID_1_" gradientUnits="userSpaceOnUse" x1="83.9" y1="389.9" x2="83.9" y2="608.4" gradientTransform="matrix(2.6143 0 0 -2.6143 176.5323 1599.9316)">
		<stop  offset="0" style="stop-color:#08446D"/>
		<stop  offset="1" style="stop-color:#007091"/>
	</linearGradient>
	<path fill="url(#SVGID_1_)" d="M395.9,9.4C290.5,9.4,205,94.9,205,200.3s157.6,257,190.8,380.4c32.7-125.5,190.8-275,190.8-380.4
		S501.2,9.4,395.9,9.4z"/>
	<g>
		
			<radialGradient id="SVGID_2_" cx="83.9" cy="543" r="36.5419" gradientTransform="matrix(2.6143 0 0 -2.6143 176.5323 1599.9316)" gradientUnits="userSpaceOnUse">
			<stop  offset="0" style="stop-color:#F89A43"/>
			<stop  offset="0.2285" style="stop-color:#F39541"/>
			<stop  offset="0.5058" style="stop-color:#E4873A"/>
			<stop  offset="0.8071" style="stop-color:#CC702F"/>
			<stop  offset="1" style="stop-color:#B85E26"/>
		</radialGradient>
		<circle fill="url(#SVGID_2_)" cx="395.9" cy="180.4" r="95.4"/>
		<path fill="#F89A43" d="M395.9,278.7c-54.1,0-98.3-44.2-98.3-98.3s44.2-98.3,98.3-98.3s98.3,44.2,98.3,98.3
			S450.2,278.7,395.9,278.7z M395.9,87.6c-51,0-92.5,41.6-92.5,92.5s41.6,92.5,92.5,92.5s92.5-41.6,92.5-92.5S447.1,87.6,395.9,87.6
			z"/>
	</g>
</g>
</svg>
