<?xml version="1.0" encoding="utf-8"?>
<!-- Generator: Adobe Illustrator 18.0.0, SVG Export Plug-In . SVG Version: 6.00 Build 0)  -->
<!DOCTYPE svg PUBLIC "-//W3C//DTD SVG 1.1//EN" "http://www.w3.org/Graphics/SVG/1.1/DTD/svg11.dtd">
<svg version="1.1" id="Layer_1" xmlns="http://www.w3.org/2000/svg" xmlns:xlink="http://www.w3.org/1999/xlink" x="0px" y="0px"
	 viewBox="0 0 792 612" enable-background="new 0 0 792 612" xml:space="preserve">
<g>
	<path fill="#202C62" d="M388.5,584c-14.9-55.2-55.7-117.4-95.4-177.2c-49.7-75.6-96.7-146.9-96.7-207C196.4,89.7,285.8,0,395.9,0
		s199.5,89.4,199.5,199.5c0,59.6-46.5,129.9-95.7,204.4c-40,60.7-81.6,123.4-96.5,179.9l-7.1,28.2L388.5,584z"/>
	
		<linearGradient id="SVGID_1_" gradientUnits="userSpaceOnUse" x1="83.9" y1="389.4" x2="83.9" y2="609" gradientTransform="matrix(2.6143 0 0 -2.6143 176.5323 1599.9316)">
		<stop  offset="0" style="stop-color:#08446D"/>
		<stop  offset="1" style="stop-color:#007091"/>
	</linearGradient>
	<path fill="url(#SVGID_1_)" d="M395.9,7.8C290,7.8,204,93.6,204,199.7S362.4,458,395.9,581.9c32.9-126,191.9-276.3,191.9-382.2
		S502,7.8,395.9,7.8z"/>
	<g>
		
			<radialGradient id="SVGID_2_" cx="83.9" cy="543.3" r="36.7" gradientTransform="matrix(2.6143 0 0 -2.6143 176.5323 1599.9316)" gradientUnits="userSpaceOnUse">
			<stop  offset="0" style="stop-color:#08446D"/>
			<stop  offset="0.3263" style="stop-color:#063E64"/>
			<stop  offset="0.8477" style="stop-color:#022C4D"/>
			<stop  offset="1" style="stop-color:#002645"/>
		</radialGradient>
		<circle fill="url(#SVGID_2_)" cx="395.9" cy="179.6" r="95.9"/>
		<path fill="#141B49" d="M395.9,278.4c-54.4,0-98.8-44.4-98.8-98.8s44.4-98.8,98.8-98.8s98.8,44.4,98.8,98.8
			S450.5,278.4,395.9,278.4z M395.9,86.5c-51.2,0-93.1,41.8-93.1,93.1s41.8,93.1,93.1,93.1s93.1-41.8,93.1-93.1
			S447.4,86.5,395.9,86.5z"/>
	</g>
</g>
</svg>
