<?xml version="1.0" encoding="utf-8"?>
<!-- Generator: Adobe Illustrator 18.0.0, SVG Export Plug-In . SVG Version: 6.00 Build 0)  -->
<!DOCTYPE svg PUBLIC "-//W3C//DTD SVG 1.1//EN" "http://www.w3.org/Graphics/SVG/1.1/DTD/svg11.dtd">
<svg version="1.1" id="Layer_1" xmlns="http://www.w3.org/2000/svg" xmlns:xlink="http://www.w3.org/1999/xlink" x="0px" y="0px"
	 viewBox="0 0 792 612" enable-background="new 0 0 792 612" xml:space="preserve">
<g>
	<path fill="#B85E26" d="M388.5,580.9c-14.6-54.4-55.2-115.8-94.4-175.4C245,331,198.5,260.4,198.5,200.8
		C198.5,92,287.1,3.4,395.9,3.4S593.2,92,593.2,200.8c0,59.1-46,128.6-94.6,202.1c-39.7,59.9-80.8,122.1-95.4,178l-7.1,27.7
		L388.5,580.9z"/>
	
		<linearGradient id="SVGID_1_" gradientUnits="userSpaceOnUse" x1="83.9107" y1="221.5201" x2="83.9107" y2="4.2153" gradientTransform="matrix(2.6143 0 0 2.6143 176.5323 -1.996708e-02)">
		<stop  offset="0" style="stop-color:#B85E26"/>
		<stop  offset="9.327835e-02" style="stop-color:#C1662A"/>
		<stop  offset="0.4616" style="stop-color:#DF8338"/>
		<stop  offset="0.7768" style="stop-color:#F19440"/>
		<stop  offset="1" style="stop-color:#F89A43"/>
	</linearGradient>
	<path fill="url(#SVGID_1_)" d="M395.9,11c-104.8,0-189.8,85-189.8,189.8S363,456.2,395.9,579.1c32.7-124.7,189.8-273.5,189.8-378.3
		S500.7,11,395.9,11z"/>
	<g>
		
			<radialGradient id="SVGID_2_" cx="83.9107" cy="69.204" r="36.3003" gradientTransform="matrix(2.6143 0 0 2.6143 176.5323 -1.996708e-02)" gradientUnits="userSpaceOnUse">
			<stop  offset="0" style="stop-color:#8F4612"/>
			<stop  offset="0.8557" style="stop-color:#822F03"/>
			<stop  offset="1" style="stop-color:#7F2B00"/>
		</radialGradient>
		<circle fill="url(#SVGID_2_)" cx="395.9" cy="180.9" r="94.9"/>
		<path fill="#5F2C00" d="M395.9,278.7c-53.9,0-97.8-43.9-97.8-97.8s43.9-97.8,97.8-97.8s97.8,43.9,97.8,97.8
			S449.7,278.7,395.9,278.7z M395.9,88.9c-50.7,0-92,41.3-92,92s41.3,92,92,92s92-41.3,92-92S446.6,88.9,395.9,88.9z"/>
	</g>
</g>
</svg>
